<svg viewBox="0 0 512 512" xmlns="http://www.w3.org/2000/svg">
  <!-- Black circle background -->
  <circle cx="256" cy="256" r="256" fill="black"/>
  
  <!-- White brain cutout (this will be the transparent part showing the gradient) -->
  <g fill="white">
    <!-- Main brain structure -->
    <path d="M256 128c-35.3 0-64 28.7-64 64 0 8.8 1.8 17.2 5 24.8-15.2 8.3-25 24.4-25 42.2 0 26.5 21.5 48 48 48h16c8.8 0 16 7.2 16 16s-7.2 16-16 16h-16c-44.2 0-80-35.8-80-80 0-25.4 11.9-48 30.4-62.6C162.9 176.5 160 156.6 160 136c0-53 43-96 96-96s96 43 96 96c0 20.6-2.9 40.5-10.4 60.4C360.1 211 372 233.6 372 259c0 44.2-35.8 80-80 80h-16c-8.8 0-16-7.2-16-16s7.2-16 16-16h16c26.5 0 48-21.5 48-48 0-17.8-9.8-33.9-25-42.2 3.2-7.6 5-16 5-24.8 0-35.3-28.7-64-64-64z"/>
    
    <!-- Brain folds and details -->
    <path d="M220 200c-8.8 0-16 7.2-16 16s7.2 16 16 16 16-7.2 16-16-7.2-16-16-16zm72 0c-8.8 0-16 7.2-16 16s7.2 16 16 16 16-7.2 16-16-7.2-16-16-16z"/>
    
    <!-- Additional brain texture -->
    <path d="M256 160c-17.7 0-32 14.3-32 32s14.3 32 32 32 32-14.3 32-32-14.3-32-32-32zm0 48c-8.8 0-16-7.2-16-16s7.2-16 16-16 16 7.2 16 16-7.2 16-16 16z"/>
    
    <!-- Cerebellum -->
    <path d="M256 320c-13.3 0-24 10.7-24 24s10.7 24 24 24 24-10.7 24-24-10.7-24-24-24z"/>
    
    <!-- Brain stem -->
    <path d="M256 368c-8.8 0-16 7.2-16 16v32c0 8.8 7.2 16 16 16s16-7.2 16-16v-32c0-8.8-7.2-16-16-16z"/>
  </g>
</svg>
